<?xml version="1.0" encoding="iso-8859-1"?>
<!-- Generator: Adobe Illustrator 19.0.0, SVG Export Plug-In . SVG Version: 6.00 Build 0)  -->
<svg version="1.1" id="Layer_1" xmlns="http://www.w3.org/2000/svg" xmlns:xlink="http://www.w3.org/1999/xlink" x="0px" y="0px"
	 viewBox="0 0 512 512" style="enable-background:new 0 0 512 512;" xml:space="preserve">
<g>
	<g>
		<path d="M74.708,0v512L256,434.303L437.292,512V0H74.708z M402.203,458.787L256,396.129l-146.203,62.658V35.089h292.406V458.787z"
			/>
	</g>
</g>
<g>
	<g>
		<path d="M344.26,145.838c-13.445-13.445-31.319-20.849-50.332-20.849c-13.632,0-26.679,3.806-37.927,10.915
			c-11.248-7.11-24.294-10.915-37.926-10.915c-19.013,0-36.888,7.405-50.332,20.849c-13.445,13.445-20.849,31.319-20.849,50.332
			c0,19.012,7.405,36.888,20.849,50.332l88.257,88.259l88.261-88.259C372.011,218.749,372.011,173.591,344.26,145.838z
			 M319.449,221.691L256,285.139l-63.447-63.447c-6.817-6.818-10.571-15.881-10.571-25.521c-0.001-9.64,3.753-18.703,10.571-25.521
			c6.817-6.817,15.88-10.571,25.52-10.571c9.641,0,18.705,3.755,25.52,10.571l12.406,12.406l12.406-12.405
			c6.818-6.818,15.881-10.572,25.522-10.572c9.64,0,18.703,3.755,25.521,10.571C333.52,184.721,333.52,207.619,319.449,221.691z"/>
	</g>
</g>
<g>
</g>
<g>
</g>
<g>
</g>
<g>
</g>
<g>
</g>
<g>
</g>
<g>
</g>
<g>
</g>
<g>
</g>
<g>
</g>
<g>
</g>
<g>
</g>
<g>
</g>
<g>
</g>
<g>
</g>
</svg>
